# This file uses meters as units for non-parametric coordinates.

mtllib rock6.mtl
g default
v 4.881068 0.000015 -516.379257
v 62.152960 0.000015 -554.610416
v 13.861841 37.051374 -535.602138
v 49.721980 40.452181 -555.390430
v 39.411375 61.456777 -633.861698
v 82.711489 40.452181 -597.822623
v 21.274953 0.000015 -635.011641
v 90.124601 0.000015 -601.389069
v -90.124601 0.231750 -654.947718
v -82.791972 0.231750 -539.187641
v -58.336967 45.162109 -543.790041
v -76.592506 45.162109 -643.770433
v 35.371557 40.151805 -678.919201
v 64.790389 27.466678 -653.334038
v 78.100772 0.000015 -653.334038
v 38.435417 0.000015 -687.669465
v -17.157233 0.231750 -677.765831
v -17.186402 34.988499 -670.876482
vt 0.580982 0.184293
vt 0.948485 0.179030
vt 0.943045 0.341686
vt 0.621155 0.331766
vt 0.806839 0.575477
vt 0.813689 0.444853
vt 0.982633 0.443670
vt 0.992818 0.539847
vt 0.642119 0.464617
vt 0.638118 0.598676
vt 0.928110 0.806212
vt 0.967953 0.681863
vt 0.411014 0.796907
vt 0.428333 0.508255
vt 0.509151 0.616754
vt 0.204434 0.547235
vt 0.337277 0.555326
vt 0.494502 0.631660
vt 0.104390 0.997123
vt 0.008401 0.681445
vt 0.482480 0.933044
vt 0.302517 0.973781
vt 0.371576 0.173684
vt 0.589738 0.280223
vt 0.501105 0.428450
vt 0.319630 0.549592
vt 0.425953 0.006829
vt 0.551639 0.115627
vt 0.041822 0.477319
vt 0.018587 0.110514
vt 0.249796 0.038209
vt 0.967660 0.834922
vt 0.984754 0.969129
vt 0.753582 0.984323
vt 0.680631 0.838842
vt 0.570289 0.149852
vt 0.558436 0.017238
vt 0.740825 0.021899
vt 0.742360 0.136372
vt 0.987650 0.031596
vt 0.950726 0.183012
vt 0.553722 0.817609
vt 0.816299 0.740059
vt 0.806115 0.643883
vn 0.507539 0.236436 0.828554
vn 0.507539 0.236436 0.828554
vn 0.507539 0.236436 0.828554
vn 0.507539 0.236436 0.828554
vn 0.164841 0.957973 0.234764
vn 0.164841 0.957973 0.234764
vn 0.164841 0.957973 0.234764
vn 0.164841 0.957973 0.234764
vn 0.660113 0.251448 -0.707831
vn 0.660113 0.251448 -0.707831
vn 0.660113 0.251448 -0.707831
vn 0.660113 0.251448 -0.707831
vn 0.000000 -1.000000 0.000000
vn 0.000000 -1.000000 0.000000
vn 0.000000 -1.000000 0.000000
vn 0.000000 -1.000000 0.000000
vn 0.812144 0.180088 0.554969
vn 0.812144 0.180088 0.554969
vn 0.812144 0.180088 0.554969
vn 0.812144 0.180088 0.554969
vn -0.918433 0.380282 0.108932
vn -0.918433 0.380282 0.108932
vn -0.918433 0.380282 0.108932
vn -0.918433 0.380282 0.108932
vn -0.002309 -0.999997 -0.000089
vn -0.002309 -0.999997 -0.000089
vn -0.002309 -0.999997 -0.000089
vn -0.002309 -0.999997 -0.000089
vn -0.162361 0.335857 0.927814
vn -0.162361 0.335857 0.927814
vn -0.162361 0.335857 0.927814
vn -0.162361 0.335857 0.927814
vn -0.054646 0.991266 0.120025
vn -0.054646 0.991266 0.120025
vn -0.054646 0.991266 0.120025
vn -0.054646 0.991266 0.120025
vn -0.169202 0.194730 -0.966153
vn -0.169202 0.194730 -0.966153
vn -0.169202 0.194730 -0.966153
vn -0.169202 0.194730 -0.966153
vn 0.630045 0.682576 -0.370315
vn 0.630045 0.682576 -0.370315
vn 0.630045 0.682576 -0.370315
vn 0.630045 0.682576 -0.370315
vn 0.911203 0.293222 -0.289360
vn 0.911203 0.293222 -0.289360
vn 0.911203 0.293222 -0.289360
vn 0.911203 0.293222 -0.289360
vn 0.000000 -1.000000 0.000000
vn 0.000000 -1.000000 0.000000
vn 0.000000 -1.000000 0.000000
vn 0.000000 -1.000000 0.000000
vn -0.002590 -0.999992 -0.003092
vn -0.002590 -0.999992 -0.003092
vn -0.002590 -0.999992 -0.003092
vn -0.002590 -0.999992 -0.003092
vn -0.323029 0.260982 -0.909692
vn -0.323029 0.260982 -0.909692
vn -0.323029 0.260982 -0.909692
vn -0.323029 0.260982 -0.909692
vn -0.106715 0.878751 -0.465197
vn -0.106716 0.878751 -0.465197
vn -0.106715 0.878751 -0.465197
vn -0.106715 0.878751 -0.465197
s off
g Rock_lp_6
usemtl initialShadingGroup
f 1/14/1 2/9/2 4/10/3 3/15/4
f 3/16/5 4/17/6 6/18/7 5/13/8
f 13/11/9 14/43/10 15/44/11 16/12/12
f 7/23/13 8/24/14 2/25/15 1/26/16
f 2/9/17 8/6/18 6/5/19 4/10/20
f 9/1/21 10/2/22 11/3/23 12/4/24
f 7/23/25 1/26/26 10/29/27 9/30/28
f 1/32/29 3/33/30 11/34/31 10/35/32
f 3/16/33 5/13/34 12/19/35 11/20/36
f 13/36/37 16/37/38 17/38/39 18/39/40
f 5/13/41 6/18/42 14/42/43 13/21/44
f 6/5/45 8/6/46 15/7/47 14/8/48
f 8/24/49 7/23/50 16/27/51 15/28/52
f 7/23/53 9/30/54 17/31/55 16/27/56
f 9/40/57 12/41/58 18/39/59 17/38/60
f 12/19/61 5/13/62 13/21/63 18/22/64
